<?xml version="1.0" encoding="UTF-8" standalone="no"?>
<!-- Generator: Adobe Illustrator 26.0.1, SVG Export Plug-In . SVG Version: 6.00 Build 0)  -->

<svg
   version="1.1"
   id="Capa_1"
   x="0px"
   y="0px"
   viewBox="0 0 24 24"
   style="enable-background:new 0 0 24 24;"
   xml:space="preserve"
   width="512"
   height="512"
   sodipodi:docname="discord.svg"
   inkscape:version="1.3.2 (091e20e, 2023-11-25, custom)"
   xmlns:inkscape="http://www.inkscape.org/namespaces/inkscape"
   xmlns:sodipodi="http://sodipodi.sourceforge.net/DTD/sodipodi-0.dtd"
   xmlns="http://www.w3.org/2000/svg"
   xmlns:svg="http://www.w3.org/2000/svg"><defs
   id="defs1" /><sodipodi:namedview
   id="namedview1"
   pagecolor="#ffffff"
   bordercolor="#000000"
   borderopacity="0.25"
   inkscape:showpageshadow="2"
   inkscape:pageopacity="0.0"
   inkscape:pagecheckerboard="0"
   inkscape:deskcolor="#d1d1d1"
   inkscape:zoom="1.6816406"
   inkscape:cx="256"
   inkscape:cy="256"
   inkscape:window-width="1920"
   inkscape:window-height="1057"
   inkscape:window-x="-8"
   inkscape:window-y="-8"
   inkscape:window-maximized="1"
   inkscape:current-layer="Capa_1" />
<g
   id="g1">
	<path
   d="M20.317,4.37c-1.53-0.702-3.17-1.219-4.885-1.515c-0.031-0.006-0.062,0.009-0.079,0.037   c-0.211,0.375-0.445,0.865-0.608,1.249c-1.845-0.276-3.68-0.276-5.487,0C9.095,3.748,8.852,3.267,8.641,2.892   C8.624,2.864,8.593,2.85,8.562,2.855C6.848,3.15,5.208,3.667,3.677,4.37C3.664,4.375,3.652,4.385,3.645,4.397   c-3.111,4.648-3.964,9.182-3.546,13.66c0.002,0.022,0.014,0.043,0.031,0.056c2.053,1.508,4.041,2.423,5.993,3.029   c0.031,0.01,0.064-0.002,0.084-0.028c0.462-0.63,0.873-1.295,1.226-1.994c0.021-0.041,0.001-0.09-0.042-0.106   c-0.653-0.248-1.274-0.55-1.872-0.892c-0.047-0.028-0.051-0.095-0.008-0.128c0.126-0.094,0.252-0.192,0.372-0.291   c0.022-0.018,0.052-0.022,0.078-0.01c3.928,1.793,8.18,1.793,12.061,0c0.026-0.012,0.056-0.009,0.079,0.01   c0.12,0.099,0.246,0.198,0.373,0.292c0.044,0.032,0.041,0.1-0.007,0.128c-0.598,0.349-1.219,0.645-1.873,0.891   c-0.043,0.016-0.061,0.066-0.041,0.107c0.36,0.698,0.772,1.363,1.225,1.993c0.019,0.027,0.053,0.038,0.084,0.029   c1.961-0.607,3.95-1.522,6.002-3.029c0.018-0.013,0.029-0.033,0.031-0.055c0.5-5.177-0.838-9.674-3.548-13.66   C20.342,4.385,20.33,4.375,20.317,4.37z M8.02,15.331c-1.183,0-2.157-1.086-2.157-2.419s0.955-2.419,2.157-2.419   c1.211,0,2.176,1.095,2.157,2.419C10.177,14.246,9.221,15.331,8.02,15.331z M15.995,15.331c-1.182,0-2.157-1.086-2.157-2.419   s0.955-2.419,2.157-2.419c1.211,0,2.176,1.095,2.157,2.419C18.152,14.246,17.206,15.331,15.995,15.331z"
   id="path1" />
</g>















<path
   style="fill:#4545ff;stroke-width:0.594657;fill-opacity:1"
   d="M 118.63415,446.65844 C 80.416266,433.42655 48.746968,417.57729 16.207705,395.39798 2.0473456,385.74603 2.5797079,386.25513 2.1492319,381.9539 0.48293077,365.30456 -0.00192937,330.35209 1.1893086,312.7552 6.1972296,238.77854 29.006322,170.99078 71.249759,104.53821 l 6.881578,-10.825321 7.466274,-3.253787 C 114.23658,77.978288 142.12995,69.232635 173.0453,63.040867 c 9.1067,-1.823904 9.88169,-1.894776 10.78372,-0.986158 1.1199,1.128086 7.45692,13.323136 11.03792,21.241557 l 2.44035,5.396149 7.64136,-1.061155 c 32.55253,-4.52057 72.35465,-4.397062 104.49776,0.324261 l 5.27916,0.775428 1.7474,-3.928773 c 3.50877,-7.888937 11.34092,-23.188232 11.99638,-23.433683 0.95661,-0.358221 20.91497,3.72973 32.19035,6.593356 21.05632,5.347706 42.2569,12.507174 61.84437,20.88494 l 10.70383,4.578141 2.85517,4.130741 c 12.07849,17.474669 27.64931,45.250649 37.26481,66.474829 20.77023,45.84582 32.20541,89.50331 37.01745,141.32606 1.05215,11.33097 1.01058,58.03756 -0.0629,70.65968 l -0.82557,9.70729 -8.68895,6.16115 c -32.82295,23.27404 -69.18734,41.68764 -109.62917,55.5122 l -10.55229,3.60718 -1.2275,-1.3162 c -1.62712,-1.74468 -11.36816,-16.43722 -15.85426,-23.91318 -5.80278,-9.67016 -10.47205,-18.77703 -9.90791,-19.32423 0.28691,-0.2783 3.33142,-1.61872 6.76557,-2.9787 7.67242,-3.03842 18.90979,-8.37005 27.80023,-13.18998 8.31291,-4.50682 8.40063,-4.856 2.40921,-9.58963 -4.70826,-3.71986 -5.87539,-3.98902 -9.43118,-2.17499 -4.69915,2.39733 -21.28945,8.8148 -31.18736,12.06392 -67.90864,22.29193 -139.58033,19.95681 -206.64084,-6.73253 -4.7424,-1.88742 -10.19451,-4.13069 -12.11581,-4.98505 -1.9213,-0.85437 -4.01253,-1.55339 -4.64719,-1.55339 -1.42874,0 -9.20322,5.85033 -9.71833,7.31309 -0.20708,0.58806 -0.0609,1.44955 0.32497,1.91442 1.02733,1.23786 26.56925,13.91224 34.08731,16.91477 3.54438,1.41553 6.57253,2.90783 6.72924,3.3162 0.79821,2.0801 -18.7678,34.9329 -25.21031,42.33001 l -1.64036,1.88341 z m 60.49181,-120.14167 c 31.7555,-6.07583 48.19674,-46.19924 31.86708,-77.76884 -6.12971,-11.85038 -17.75856,-21.17538 -29.91987,-23.99232 -6.06003,-1.40369 -15.13948,-1.27219 -20.87887,0.30239 -8.00053,2.19491 -13.46086,5.46403 -19.85516,11.88733 -6.45415,6.48344 -9.65376,11.61881 -12.43103,19.95182 -2.52155,7.56575 -3.24068,12.99897 -2.83277,21.4025 0.68078,14.02541 5.24376,25.09059 14.2912,34.65607 10.97683,11.60533 24.99376,16.38619 39.75942,13.56105 z m 173.20853,-0.60225 c 6.32784,-1.66132 13.06717,-5.49026 18.25755,-10.373 5.46831,-5.14419 8.62733,-9.53661 11.76479,-16.3582 10.95116,-23.81041 4.05483,-53.12933 -15.84194,-67.35012 -7.73416,-5.52783 -15.72721,-8.04113 -25.5784,-8.04279 -10.94961,-0.002 -20.72645,3.8897 -29.05693,11.56573 -15.74678,14.50968 -21.13548,38.68689 -13.367,59.97301 5.74083,15.73028 18.82833,27.69135 34.11734,31.18092 4.5207,1.0318 14.67511,0.72489 19.70459,-0.59555 z"
   id="path2"
   transform="scale(0.046875)" /></svg>
