<?xml version="1.0" encoding="UTF-8" standalone="no"?>
<!-- Generator: Adobe Illustrator 26.0.1, SVG Export Plug-In . SVG Version: 6.00 Build 0)  -->

<svg
   version="1.1"
   id="Capa_1"
   x="0px"
   y="0px"
   viewBox="0 0 24 24"
   style="enable-background:new 0 0 24 24;"
   xml:space="preserve"
   width="512"
   height="512"
   sodipodi:docname="instagram.svg"
   inkscape:version="1.3.2 (091e20e, 2023-11-25, custom)"
   xmlns:inkscape="http://www.inkscape.org/namespaces/inkscape"
   xmlns:sodipodi="http://sodipodi.sourceforge.net/DTD/sodipodi-0.dtd"
   xmlns:xlink="http://www.w3.org/1999/xlink"
   xmlns="http://www.w3.org/2000/svg"
   xmlns:svg="http://www.w3.org/2000/svg"><defs
   id="defs2"><linearGradient
     id="linearGradient25"
     inkscape:collect="always"><stop
       style="stop-color:#6745ff;stop-opacity:1;"
       offset="0"
       id="stop25" /><stop
       style="stop-color:#456eff;stop-opacity:0;"
       offset="1"
       id="stop26" /></linearGradient><linearGradient
     id="linearGradient17"
     inkscape:collect="always"><stop
       style="stop-color:#ee00a5;stop-opacity:1;"
       offset="0"
       id="stop18" /><stop
       style="stop-color:#ee3232;stop-opacity:1;"
       offset="1"
       id="stop19" /></linearGradient><linearGradient
     id="linearGradient7"
     inkscape:swatch="gradient"><stop
       style="stop-color:#7d0085;stop-opacity:1;"
       offset="0"
       id="stop7" /><stop
       style="stop-color:#e926f1;stop-opacity:0.74901962;"
       offset="0.25259435"
       id="stop10" /><stop
       style="stop-color:#e019e4;stop-opacity:0.49803922;"
       offset="0.34115085"
       id="stop9" /><stop
       style="stop-color:#ffe808;stop-opacity:1;"
       offset="1"
       id="stop8" /></linearGradient><radialGradient
     inkscape:collect="always"
     xlink:href="#linearGradient17"
     id="radialGradient19"
     cx="12.042989"
     cy="11.944437"
     fx="12.042989"
     fy="11.944437"
     r="13.856336"
     gradientTransform="matrix(0.81682848,0,0,0.81471579,2.3500874,2.0295403)"
     gradientUnits="userSpaceOnUse" /><linearGradient
     inkscape:collect="always"
     xlink:href="#linearGradient25"
     id="linearGradient26"
     x1="3.0748057"
     y1="-0.43362728"
     x2="16.477804"
     y2="20.459284"
     gradientUnits="userSpaceOnUse"
     gradientTransform="matrix(0.81280513,0,0,0.82022769,2.3985407,1.9915781)" /></defs><sodipodi:namedview
   id="namedview2"
   pagecolor="#ffffff"
   bordercolor="#000000"
   borderopacity="0.25"
   inkscape:showpageshadow="2"
   inkscape:pageopacity="0.0"
   inkscape:pagecheckerboard="0"
   inkscape:deskcolor="#d1d1d1"
   inkscape:zoom="0.84082032"
   inkscape:cx="-109.41696"
   inkscape:cy="296.73403"
   inkscape:window-width="1920"
   inkscape:window-height="1057"
   inkscape:window-x="-8"
   inkscape:window-y="-8"
   inkscape:window-maximized="1"
   inkscape:current-layer="g2" />
<g
   id="g2">
	<rect
   style="fill:url(#radialGradient19);fill-opacity:1;stroke:none;stroke-width:0.0383211"
   id="rect6"
   width="22.636499"
   height="22.57795"
   x="0.86889404"
   y="0.47188658"
   ry="5.1929288" /><rect
   style="display:inline;fill:url(#linearGradient26);stroke:none;stroke-width:0.0382737"
   id="rect19"
   width="22.525003"
   height="22.633699"
   x="0.92464316"
   y="0.47188669"
   ry="5.2057509" /><path
   d="m 12.242149,4.9064606 c 2.237384,0 2.502741,0.00831 3.386103,0.048463 0.913389,0.04154 1.854013,0.2478522 2.519501,0.9076373 0.671775,0.666016 0.873586,1.5895766 0.915484,2.4979062 0.0405,0.8757903 0.04888,1.1388735 0.04888,3.3570809 0,2.218206 -0.0084,2.48129 -0.04888,3.35708 -0.0412,0.900715 -0.254184,1.842275 -0.915484,2.497907 -0.671774,0.666016 -1.60262,0.866097 -2.519501,0.907637 -0.883362,0.04015 -1.148719,0.04846 -3.386103,0.04846 -2.237385,0 -2.5027418,-0.0083 -3.3861038,-0.04846 C 7.9545272,18.439324 6.9922565,18.22332 6.3365437,17.572535 5.6682614,16.90998 5.4629583,15.977419 5.4210598,15.074628 c -0.040502,-0.87579 -0.048882,-1.138874 -0.048882,-3.35708 0,-2.2182077 0.00838,-2.4812909 0.048882,-3.3570812 0.0412,-0.8972523 0.2562796,-1.844352 0.9154839,-2.4979062 C 7.006921,5.1979292 7.9419576,4.9964628 8.8560452,4.9549233 9.7394072,4.9147683 10.004764,4.9064606 12.242149,4.9064606 m 0,-1.4968051 c -2.2757918,0 -2.5613998,0.00969 -3.4552368,0.049848 C 7.4915479,3.5183508 6.2052615,3.87559 5.2688282,4.8039969 4.3289034,5.7358655 3.9720672,7.0083576 3.9127109,8.291927 c -0.040502,0.8861751 -0.050278,1.1693358 -0.050278,3.425621 0,2.256285 0.00978,2.539445 0.050278,3.42562 0.059356,1.282878 0.4210808,2.561601 1.3561173,3.487931 0.9392266,0.931175 2.2248146,1.285646 3.518084,1.344493 0.893837,0.04016 1.179445,0.04985 3.4552368,0.04985 2.275791,0 2.561399,-0.0097 3.455236,-0.04985 1.294666,-0.05885 2.582349,-0.416779 3.518084,-1.344493 0.940623,-0.932561 1.296761,-2.204362 1.356117,-3.487931 0.0405,-0.886175 0.05027,-1.169335 0.05027,-3.42562 0,-2.2562852 -0.0098,-2.5394459 -0.05027,-3.425621 C 20.512226,7.0076651 20.151204,5.7317113 19.215469,4.8039967 18.277639,3.8742051 16.988559,3.5176581 15.697385,3.4595028 14.803548,3.419348 14.51794,3.4096555 12.242149,3.4096555 Z"
   id="path1"
   style="fill:#f9f9f9;fill-opacity:1;stroke-width:0.695311" />
	<path
   d="m 12.242149,7.451445 c -2.3763478,0 -4.3029846,1.9101228 -4.3029846,4.266103 0,2.355979 1.9266368,4.266102 4.3029846,4.266102 2.376347,0 4.302984,-1.910123 4.302984,-4.266102 0,-2.3559802 -1.926637,-4.266103 -4.302984,-4.266103 z m 0,7.0354 c -1.542567,0 -2.7932388,-1.239953 -2.7932388,-2.769297 0,-1.529345 1.2506718,-2.7692978 2.7932388,-2.7692978 1.542566,0 2.793238,1.2399528 2.793238,2.7692978 0,1.529344 -1.250672,2.769297 -2.793238,2.769297 z"
   id="path2"
   style="fill:#f9f9f9;stroke-width:0.695311" />
	<ellipse
   cx="16.715519"
   cy="7.2825179"
   id="circle2"
   style="fill:#f9f9f9;stroke-width:0.695311"
   rx="1.005566"
   ry="0.99694711" />
</g>















</svg>
