<?xml version="1.0" encoding="UTF-8" standalone="no"?>
<!-- Generator: Adobe Illustrator 26.0.1, SVG Export Plug-In . SVG Version: 6.00 Build 0)  -->

<svg
   version="1.1"
   id="Capa_1"
   x="0px"
   y="0px"
   viewBox="0 0 24 24"
   style="enable-background:new 0 0 24 24;"
   xml:space="preserve"
   width="512"
   height="512"
   sodipodi:docname="whatsapp.svg"
   inkscape:version="1.3.2 (091e20e, 2023-11-25, custom)"
   xmlns:inkscape="http://www.inkscape.org/namespaces/inkscape"
   xmlns:sodipodi="http://sodipodi.sourceforge.net/DTD/sodipodi-0.dtd"
   xmlns="http://www.w3.org/2000/svg"
   xmlns:svg="http://www.w3.org/2000/svg"><defs
   id="defs1" /><sodipodi:namedview
   id="namedview1"
   pagecolor="#ffffff"
   bordercolor="#000000"
   borderopacity="0.25"
   inkscape:showpageshadow="2"
   inkscape:pageopacity="0.0"
   inkscape:pagecheckerboard="0"
   inkscape:deskcolor="#d1d1d1"
   inkscape:zoom="1.6816406"
   inkscape:cx="255.70267"
   inkscape:cy="256"
   inkscape:window-width="1920"
   inkscape:window-height="1057"
   inkscape:window-x="-8"
   inkscape:window-y="-8"
   inkscape:window-maximized="1"
   inkscape:current-layer="Capa_1" />
<g
   id="WA_Logo">
	<g
   id="g1">
		<path
   style="fill-rule:evenodd;clip-rule:evenodd;"
   d="M20.463,3.488C18.217,1.24,15.231,0.001,12.05,0    C5.495,0,0.16,5.334,0.157,11.892c-0.001,2.096,0.547,4.142,1.588,5.946L0.057,24l6.304-1.654    c1.737,0.948,3.693,1.447,5.683,1.448h0.005c6.554,0,11.89-5.335,11.893-11.893C23.944,8.724,22.708,5.735,20.463,3.488z     M12.05,21.785h-0.004c-1.774,0-3.513-0.477-5.031-1.378l-0.361-0.214l-3.741,0.981l0.999-3.648l-0.235-0.374    c-0.99-1.574-1.512-3.393-1.511-5.26c0.002-5.45,4.437-9.884,9.889-9.884c2.64,0,5.122,1.03,6.988,2.898    c1.866,1.869,2.893,4.352,2.892,6.993C21.932,17.351,17.498,21.785,12.05,21.785z M17.472,14.382    c-0.297-0.149-1.758-0.868-2.031-0.967c-0.272-0.099-0.47-0.149-0.669,0.148s-0.767,0.967-0.941,1.166    c-0.173,0.198-0.347,0.223-0.644,0.074c-0.297-0.149-1.255-0.462-2.39-1.475c-0.883-0.788-1.48-1.761-1.653-2.059    s-0.018-0.458,0.13-0.606c0.134-0.133,0.297-0.347,0.446-0.521C9.87,9.97,9.919,9.846,10.019,9.647    c0.099-0.198,0.05-0.372-0.025-0.521C9.919,8.978,9.325,7.515,9.078,6.92c-0.241-0.58-0.486-0.501-0.669-0.51    C8.236,6.401,8.038,6.4,7.839,6.4c-0.198,0-0.52,0.074-0.792,0.372c-0.272,0.298-1.04,1.017-1.04,2.479    c0,1.463,1.065,2.876,1.213,3.074c0.148,0.198,2.095,3.2,5.076,4.487c0.709,0.306,1.263,0.489,1.694,0.626    c0.712,0.226,1.36,0.194,1.872,0.118c0.571-0.085,1.758-0.719,2.006-1.413c0.248-0.694,0.248-1.29,0.173-1.413    C17.967,14.605,17.769,14.531,17.472,14.382z"
   id="path1" />
	</g>
</g>















<path
   style="fill:#008000;stroke-width:1.47891;paint-order:stroke fill markers"
   d="m 1.7839721,511.3563 c 0,-0.1158 8.0572489,-29.58768 17.9049969,-65.49306 l 17.904997,-65.28252 -1.311535,-2.37863 C 12.57094,335.19839 1.42474,287.74873 4.0493141,240.9849 7.5631897,178.37577 32.45332,121.52279 75.800536,77.093802 107.12907,44.983435 144.86741,22.383508 187.71286,10.074149 c 75.76948,-21.768325 158.23738,-6.555731 221.11409,40.788222 14.78372,11.131624 32.92433,28.467605 43.93703,41.988211 28.46546,34.947808 46.94135,75.442518 54.15052,118.684868 4.47058,26.81558 4.47297,57.34128 0.007,84.13272 -6.05028,36.29242 -21.01553,72.85437 -42.12002,102.90444 -16.0367,22.83419 -38.52998,45.571 -60.88615,61.54533 -75.62649,54.03801 -173.84258,62.20145 -257.77716,21.42571 l -10.55448,-5.12741 -60.804409,15.94331 c -33.442427,8.76882 -63.54727,16.6777 -66.8996508,17.5753 -3.3523809,0.8976 -6.0952381,1.53725 -6.0952381,1.42145 z M 282.16492,463.57197 c 53.44619,-6.62388 102.23553,-33.02872 136.31543,-73.77406 27.90677,-33.36485 44.07084,-71.52033 48.6695,-114.88491 1.20822,-11.39331 0.86829,-38.0675 -0.61952,-48.6127 -3.40731,-24.15018 -9.5736,-44.59787 -19.64635,-65.14815 -10.92919,-22.29757 -22.7278,-38.79738 -40.4209,-56.52673 C 374.4562,72.552951 334.60418,52.110292 290.68041,45.233047 242.03307,37.616223 192.60361,46.849325 150.61897,71.395611 121.77314,88.260296 95.688441,113.56253 77.911694,141.92187 c -4.912286,7.8366 -13.887402,25.62623 -17.202266,34.09671 -22.080196,56.4216 -19.269606,119.05225 7.759636,172.9143 2.521782,5.02524 9.542289,17.14887 13.505579,23.32264 l 1.145233,1.78397 -10.627128,38.65273 c -5.844923,21.259 -10.56501,38.81582 -10.48909,39.01515 0.07592,0.19934 17.799362,-4.27793 39.385422,-9.94947 21.58607,-5.67155 39.60439,-10.31687 40.04071,-10.32294 0.43632,-0.006 4.84058,2.30841 9.78722,5.14329 24.7792,14.20075 50.32263,22.89656 78.32074,26.66293 14.17092,1.90631 38.67215,2.06031 52.62717,0.33079 z"
   id="path2"
   transform="scale(0.046875)" /><path
   style="fill:#008000;stroke-width:1.47891;paint-order:stroke fill markers"
   d="m 2.6583449,509.43116 c 0.2132871,-0.87656 7.9007221,-29.02233 17.0831881,-62.54614 9.182466,-33.52381 17.010932,-62.15656 17.39659,-63.62834 l 0.701196,-2.67596 -4.899983,-9.51452 C 18.799461,343.61017 10.055288,315.73978 5.8900232,284.85166 4.3204236,273.21207 3.7159282,247.89043 4.7127712,235.53788 10.601374,162.5683 44.499821,99.442519 102.28107,53.845948 110.41605,47.426434 124.96785,37.77832 134.6899,32.358282 165.47638,15.194827 201.04384,4.4388517 236.83133,1.4696333 c 12.82974,-1.06445823 40.2379,-0.4485883 52.17215,1.1723244 49.07041,6.6647507 92.46564,25.5506123 129.33798,56.2886433 10.64212,8.871626 27.89859,26.27971 35.53756,35.849781 14.84984,18.603828 27.03457,38.890298 36.12823,60.150258 23.77476,55.58268 26.45577,120.54407 7.33694,177.77526 -14.0131,41.94745 -37.57833,78.16963 -70.32847,108.10208 -48.32281,44.16532 -110.90421,67.64497 -175.77298,65.94752 -37.39723,-0.9786 -70.82703,-9.18427 -105.9877,-26.01572 l -9.6532,-4.621 -65.273627,17.11191 C 34.42772,502.64224 4.4281792,510.49613 3.6625688,510.68377 2.4035127,510.99235 2.3075913,510.8727 2.6583449,509.43116 Z M 274.28338,464.41379 c 20.29015,-0.96419 47.42976,-7.92798 69.49411,-17.83158 56.59199,-25.40138 100.57463,-76.47267 116.78001,-135.60135 5.27237,-19.23736 6.91698,-31.01014 7.27696,-52.09141 0.42015,-24.60519 -0.8818,-37.25676 -5.89279,-57.2629 -3.83321,-15.30389 -8.51125,-27.79954 -15.99044,-42.7126 C 434.70858,136.49681 425.1211,123.29078 406.76581,104.93893 395.06618,93.241497 386.93013,86.376683 375.82346,78.831213 347.11884,59.330341 316.44551,47.941078 280.97561,43.613422 c -9.89794,-1.20764 -40.13898,-1.0422 -49.65389,0.271643 -25.67467,3.545222 -46.76874,9.935896 -68.3856,20.718144 -22.12296,11.034688 -39.3289,23.689217 -57.38632,42.206191 -18.208487,18.67189 -28.600505,33.83607 -40.72014,59.41942 -8.630056,18.21721 -14.555895,39.08596 -17.65934,62.19009 -1.479833,11.01687 -1.465384,40.24484 0.02525,51.07006 2.229741,16.19276 5.332805,29.52604 10.10284,43.40998 5.220688,15.19564 10.301131,25.91345 19.731511,41.62602 l 5.71043,9.51452 -10.503957,38.54721 c -5.777174,21.20096 -10.341466,38.70969 -10.142874,38.90829 0.496146,0.49614 4.57882,-0.49573 43.75549,-10.63032 18.80604,-4.86492 34.70473,-8.84548 35.33042,-8.84569 0.62569,-2.2e-4 4.77342,1.9928 9.21719,4.42893 22.42145,12.29171 39.69744,19.0339 60.99661,23.80474 19.42691,4.35147 35.92014,5.44274 62.89015,4.16114 z"
   id="path3"
   transform="scale(0.046875)" /><path
   style="fill:#008000;stroke-width:1.47891;paint-order:stroke fill markers"
   d="m 315.46574,375.15257 c -15.35985,-1.66952 -48.57623,-13.50198 -68.08827,-24.25465 -35.58585,-19.61061 -71.14414,-54.4097 -99.00217,-96.88838 -10.45141,-15.93659 -17.34872,-33.1436 -19.38697,-48.36547 -0.82447,-6.15725 -0.37085,-17.53948 0.94348,-23.67383 2.96833,-13.85402 8.6641,-24.39292 19.12309,-35.38354 3.83536,-4.0303 6.04821,-5.81655 9.01951,-7.2807 l 3.93727,-1.94015 11.01739,-0.17028 c 12.66993,-0.19582 13.74883,0.10184 17.07095,4.70969 1.04003,1.44254 6.09555,12.78552 11.23448,25.20662 5.13894,12.4211 10.23712,24.72459 11.32928,27.34108 1.09218,2.61649 1.99067,5.5742 1.99665,6.57269 0.0267,4.45814 -6.24774,14.25069 -15.80121,24.66092 -6.91936,7.5399 -7.19073,9.64899 -2.28793,17.78163 7.68994,12.75591 16.85688,24.48623 27.26046,34.88341 16.22902,16.21903 31.93594,26.68608 55.14624,36.74932 7.05772,3.06 10.8969,3.53706 13.67186,1.69887 1.82107,-1.20632 11.65752,-12.65352 17.90033,-20.83157 8.46903,-11.0944 9.62469,-11.88406 15.27571,-10.43786 4.2278,1.08197 9.36857,3.39997 34.19767,15.41985 14.24118,6.89422 21.48563,10.72772 23.04297,12.19348 l 2.27145,2.13789 v 5.06876 c 0,10.57137 -3.57367,24.0884 -7.93223,30.00284 -7.72925,10.48835 -25.09071,21.05725 -39.0457,23.76932 -4.50815,0.87613 -18.5133,1.50625 -22.89431,1.03006 z"
   id="path4"
   transform="scale(0.046875)" /></svg>
