<?xml version="1.0" encoding="UTF-8" standalone="no"?>
<!-- Generator: Adobe Illustrator 26.0.1, SVG Export Plug-In . SVG Version: 6.00 Build 0)  -->

<svg
   version="1.1"
   id="Capa_1"
   x="0px"
   y="0px"
   viewBox="0 0 24 24"
   style="enable-background:new 0 0 24 24;"
   xml:space="preserve"
   width="512"
   height="512"
   sodipodi:docname="youtube.svg"
   inkscape:version="1.3.2 (091e20e, 2023-11-25, custom)"
   xmlns:inkscape="http://www.inkscape.org/namespaces/inkscape"
   xmlns:sodipodi="http://sodipodi.sourceforge.net/DTD/sodipodi-0.dtd"
   xmlns="http://www.w3.org/2000/svg"
   xmlns:svg="http://www.w3.org/2000/svg"><defs
   id="defs1" /><sodipodi:namedview
   id="namedview1"
   pagecolor="#ffffff"
   bordercolor="#000000"
   borderopacity="0.25"
   inkscape:showpageshadow="2"
   inkscape:pageopacity="0.0"
   inkscape:pagecheckerboard="0"
   inkscape:deskcolor="#d1d1d1"
   showgrid="false"
   inkscape:zoom="1.6816406"
   inkscape:cx="256"
   inkscape:cy="256"
   inkscape:window-width="1920"
   inkscape:window-height="1057"
   inkscape:window-x="-8"
   inkscape:window-y="-8"
   inkscape:window-maximized="1"
   inkscape:current-layer="Capa_1" />
<g
   id="XMLID_184_">
	<path
   d="M23.498,6.186c-0.276-1.039-1.089-1.858-2.122-2.136C19.505,3.546,12,3.546,12,3.546s-7.505,0-9.377,0.504   C1.591,4.328,0.778,5.146,0.502,6.186C0,8.07,0,12,0,12s0,3.93,0.502,5.814c0.276,1.039,1.089,1.858,2.122,2.136   C4.495,20.454,12,20.454,12,20.454s7.505,0,9.377-0.504c1.032-0.278,1.845-1.096,2.122-2.136C24,15.93,24,12,24,12   S24,8.07,23.498,6.186z M9.546,15.569V8.431L15.818,12L9.546,15.569z"
   id="path1" />
</g>















<path
   style="fill:#ff0000;stroke-width:0.594657"
   d="M 218.53659,435.77409 C 201.94971,435.55867 159.94684,434.41993 145.0964,433.78306 96.106913,431.6821 66.264586,428.59717 52.924506,424.25484 32.680736,417.6653 16.635514,400.58023 11.011214,379.62525 -1.6877991,332.31135 -3.111412,206.11306 8.3554868,144.20441 12.641072,121.06697 20.860163,106.94293 36.382096,96.042305 43.987984,90.700898 51.713879,87.511278 62.158275,85.400662 107.11379,76.315998 272.26521,73.096609 385.04065,79.106536 c 38.71966,2.063413 62.9802,4.900647 74.31559,8.691098 20.14929,6.737735 36.04449,23.757156 41.63255,44.577116 12.68569,47.26428 14.11059,173.57712 2.65572,235.42084 -4.24694,22.9288 -12.36153,37.00294 -27.60669,47.88166 -7.48266,5.33951 -15.81979,8.81844 -26.19609,10.93115 -31.53225,6.42023 -133.02758,10.44208 -231.30514,9.16569 z m 52.83848,-141.71602 c 36.506,-20.76841 66.37455,-37.89454 66.37455,-38.05807 0,-0.37145 -132.447,-75.74744 -133.56294,-76.01108 -0.68547,-0.16194 -0.81386,11.82907 -0.81386,76.01108 0,64.18201 0.12839,76.17302 0.81386,76.01108 0.44761,-0.10574 30.68239,-17.1846 67.18839,-37.95301 z"
   id="path2"
   transform="scale(0.046875)" /><path
   style="fill:#ff0000;stroke-width:0.594657"
   d="M 190.58769,434.98124 C 110.43706,432.75613 68.963201,429.3537 52.247481,423.63209 32.410215,416.84202 16.415281,399.22723 10.995221,378.20209 4.5660084,353.26231 1.0651147,310.0308 1.0752023,255.70267 1.0860666,197.19122 5.2754692,150.8113 12.500824,129.21221 20.014539,106.75112 36.683545,91.600118 59.763066,86.254025 87.761926,79.768428 174.70547,75.887731 275.92102,76.605885 c 94.26343,0.668827 155.47347,4.242331 179.88386,10.501802 10.01084,2.567046 20.98967,9.181798 29.0325,17.492103 9.26793,9.57614 14.60514,20.55689 17.86967,36.765 5.49659,27.29012 8.13502,64.18756 8.17597,114.33788 0.0495,60.64885 -4.51648,109.11242 -12.20434,129.53721 -7.41965,19.71216 -22.36027,33.61487 -42.27914,39.34205 -15.72877,4.52241 -48.33608,7.35318 -113.57956,9.86028 -20.76892,0.79808 -129.08575,1.18162 -152.23229,0.53903 z M 225.0393,320.70971 c 48.87013,-27.58959 112.72609,-64.2446 112.72609,-64.70775 0,-0.45245 -56.0191,-32.63899 -107.33566,-61.67117 -25.44755,-14.39688 -25.7769,-14.57318 -26.44859,-14.15805 -0.69551,0.42985 -0.88746,150.87138 -0.19338,151.56546 0.61765,0.61765 0.67687,0.58692 21.25154,-11.02849 z"
   id="path3"
   transform="scale(0.046875)" /></svg>
